<svg version="1.1" viewBox="0.0 0.0 960.0 720.0" fill="none" stroke="none" stroke-linecap="square" stroke-miterlimit="10" xmlns:xlink="http://www.w3.org/1999/xlink" xmlns="http://www.w3.org/2000/svg"><clipPath id="p.0"><path d="m0 0l960.0 0l0 720.0l-960.0 0l0 -720.0z" clip-rule="nonzero"/></clipPath><g clip-path="url(#p.0)"><path fill="#000000" fill-opacity="0.0" d="m0 0l960.0 0l0 720.0l-960.0 0z" fill-rule="evenodd"/><path fill="#000000" fill-opacity="0.0" d="m302.6299 150.57742l404.47244 0l0 382.96066l-404.47244 0z" fill-rule="evenodd"/><path fill="#a4c2f4" d="m363.47366 366.51804q-14.078125 0 -23.359375 -5.859375q-9.28125 -5.875 -13.984375 -16.4375q-4.6875 -10.5625 -5.75 -24.640625l14.296875 -4.265625q1.0625 10.65625 3.828125 19.296875q2.78125 8.640625 8.75 13.65625q5.96875 5.015625 16.421875 5.015625q11.53125 0 17.921875 -5.96875q6.40625 -5.984375 6.40625 -18.984375q0 -11.53125 -5.65625 -19.84375q-5.65625 -8.328125 -15.46875 -17.5l-30.5 -29.21875q-8.109375 -7.890625 -11.953125 -16.3125q-3.84375 -8.4375 -3.84375 -18.46875q0 -17.90625 10.671875 -27.5q10.671875 -9.609375 28.375 -9.609375q9.171875 0 16.53125 2.34375q7.359375 2.34375 12.578125 7.578125q5.234375 5.21875 8.21875 13.546875q2.984375 8.3125 4.0625 20.265625l-13.875 3.625q-0.84375 -10.875 -3.515625 -18.65625q-2.671875 -7.796875 -8.328125 -11.84375q-5.640625 -4.0625 -15.671875 -4.0625q-10.671875 0 -17.5 5.546875q-6.828125 5.546875 -6.828125 17.28125q0 7.03125 2.671875 12.796875q2.671875 5.765625 9.5 12.375l30.5 28.796875q10.234375 9.59375 17.703125 21.328125q7.46875 11.734375 7.46875 26.453125q0 13.015625 -5.015625 21.765625q-5.015625 8.75 -13.96875 13.125q-8.953125 4.375 -20.6875 4.375zm97.49094 0q-14.078125 0 -23.359375 -5.859375q-9.28125 -5.875 -13.984375 -16.4375q-4.6875 -10.5625 -5.75 -24.640625l14.296875 -4.265625q1.0625 10.65625 3.828125 19.296875q2.78125 8.640625 8.75 13.65625q5.96875 5.015625 16.421875 5.015625q11.53125 0 17.921875 -5.96875q6.40625 -5.984375 6.40625 -18.984375q0 -11.53125 -5.65625 -19.84375q-5.65625 -8.328125 -15.46875 -17.5l-30.5 -29.21875q-8.109375 -7.890625 -11.953125 -16.3125q-3.84375 -8.4375 -3.84375 -18.46875q0 -17.90625 10.671875 -27.5q10.671875 -9.609375 28.375 -9.609375q9.171875 0 16.53125 2.34375q7.359375 2.34375 12.578125 7.578125q5.234375 5.21875 8.21875 13.546875q2.984375 8.3125 4.0625 20.265625l-13.875 3.625q-0.84375 -10.875 -3.515625 -18.65625q-2.671875 -7.796875 -8.328125 -11.84375q-5.640625 -4.0625 -15.671875 -4.0625q-10.671875 0 -17.5 5.546875q-6.828125 5.546875 -6.828125 17.28125q0 7.03125 2.671875 12.796875q2.671875 5.765625 9.5 12.375l30.5 28.796875q10.234375 9.59375 17.703125 21.328125q7.46875 11.734375 7.46875 26.453125q0 13.015625 -5.015625 21.765625q-5.015625 8.75 -13.96875 13.125q-8.953125 4.375 -20.6875 4.375z" fill-rule="nonzero"/><path fill="#000000" fill-opacity="0.0" d="m132.4147 220.88452l833.3229 0l0 321.25983l-833.3229 0z" fill-rule="evenodd"/><path fill="#a64d79" d="m161.63345 312.66388q-5.453125 0 -9.0 -2.21875q-3.546875 -2.21875 -5.375 -6.234375q-1.828125 -4.015625 -2.265625 -9.46875l4.015625 -1.28125q0.59375 4.515625 1.828125 8.015625q1.25 3.5 3.796875 5.421875q2.5625 1.921875 7.09375 1.921875q5.109375 0 8.046875 -2.5625q2.953125 -2.5625 2.953125 -8.53125q0 -4.515625 -2.34375 -8.140625q-2.34375 -3.640625 -6.609375 -7.8125l-12.625 -12.546875q-3.171875 -3.25 -4.625 -6.484375q-1.4375 -3.25 -1.4375 -6.65625q0 -6.8281097 4.21875 -10.499985q4.21875 -3.671875 10.96875 -3.671875q3.5 0 6.3125 0.90625q2.8125 0.890625 4.90625 2.90625q2.09375 2.0 3.28125 5.328125q1.203125 3.328125 1.546875 8.187485l-3.9375 0.9375q-0.34375 -4.8593597 -1.625 -8.093735q-1.265625 -3.25 -3.75 -4.828125q-2.46875 -1.578125 -6.65625 -1.578125q-4.6875 0 -7.84375 2.390625q-3.15625 2.390625 -3.15625 7.671875q0 2.6406097 1.0625 5.1249847q1.0625 2.46875 3.96875 5.375l12.453125 12.28125q4.1875 4.09375 7.21875 8.75q3.03125 4.65625 3.03125 10.203125q0 5.203125 -1.96875 8.578125q-1.96875 3.359375 -5.46875 4.984375q-3.484375 1.625 -8.015625 1.625zm34.052673 -0.34375q-3.421875 0 -5.125 -1.359375q-1.703125 -1.375 -2.21875 -3.671875q-0.515625 -2.3125 -0.515625 -5.21875l0 -36.59375l-6.484375 0l0 -2.984375l6.484375 0l0 -15.79686l4.53125 0l0 15.79686l8.359375 0l0 2.984375l-8.359375 0l0 36.0q0 4.015625 0.765625 5.640625q0.765625 1.609375 3.5 1.609375q0.859375 0 1.828125 -0.125q0.984375 -0.125 1.84375 -0.296875l0 3.5q-1.03125 0.25 -2.3125 0.375q-1.28125 0.140625 -2.296875 0.140625zm23.035034 0.25q-4.859375 0 -7.546875 -2.125q-2.6875 -2.140625 -3.765625 -6.3125q-1.0625 -4.1875 -1.0625 -10.328125l0 -13.3125q0 -6.140625 1.0625 -10.328125q1.078125 -4.1875 3.765625 -6.3125q2.6875 -2.140625 7.546875 -2.140625q4.953125 0 7.640625 2.140625q2.6875 2.125 3.75 6.265625q1.0625 4.140625 1.0625 10.375l0 13.3125q0 6.140625 -1.0625 10.328125q-1.0625 4.171875 -3.75 6.3125q-2.6875 2.125 -7.640625 2.125zm0 -3.40625q3.578125 0 5.28125 -1.828125q1.71875 -1.84375 2.1875 -5.25q0.46875 -3.421875 0.46875 -8.109375l0 -13.65625q0 -4.78125 -0.46875 -8.140625q-0.46875 -3.375 -2.1875 -5.203125q-1.703125 -1.84375 -5.28125 -1.84375q-3.578125 0 -5.25 1.84375q-1.65625 1.828125 -2.125 5.203125q-0.46875 3.359375 -0.46875 8.140625l0 13.65625q0 4.6875 0.46875 8.109375q0.46875 3.40625 2.125 5.25q1.671875 1.828125 5.25 1.828125zm32.774414 3.40625q-5.546875 0 -8.203125 -2.59375q-2.640625 -2.609375 -3.453125 -6.953125q-0.8125 -4.359375 -0.8125 -9.734375l0 -11.609375q0 -7.25 1.109375 -11.640625q1.109375 -4.390625 3.84375 -6.359375q2.734375 -1.96875 7.515625 -1.96875q5.109375 0 7.703125 2.09375q2.609375 2.09375 3.46875 5.71875q0.859375 3.625 0.859375 8.15625l0 1.953125l-4.28125 0l0 -1.953125q0 -5.046875 -0.8125 -7.734375q-0.796875 -2.6875 -2.515625 -3.75q-1.703125 -1.0625 -4.421875 -1.0625q-3.328125 0 -5.046875 1.578125q-1.703125 1.578125 -2.296875 5.078125q-0.59375 3.5 -0.59375 9.390625l0 12.796875q0 8.015625 1.578125 11.609375q1.578125 3.578125 6.4375 3.578125q3.328125 0 4.984375 -1.453125q1.671875 -1.453125 2.171875 -4.515625q0.515625 -3.078125 0.515625 -7.9375l0 -1.890625l4.28125 0l0 1.796875q0 4.953125 -0.78125 8.875q-0.765625 3.921875 -3.328125 6.234375q-2.546875 2.296875 -7.921875 2.296875zm20.466766 -0.765625l0 -69.10936l4.53125 0l0 45.562485l18.34375 -25.765625l4.859375 0l-12.96875 18.84375l12.28125 30.46875l-4.59375 0l-11.09375 -27.734375l-6.828125 9.21875l0 18.515625l-4.53125 0zm64.16705 0.859375q-5.453125 0 -9.0 -2.21875q-3.546875 -2.21875 -5.375 -6.234375q-1.828125 -4.015625 -2.265625 -9.46875l4.015625 -1.28125q0.59375 4.515625 1.828125 8.015625q1.25 3.5 3.796875 5.421875q2.5625 1.921875 7.09375 1.921875q5.109375 0 8.046875 -2.5625q2.953125 -2.5625 2.953125 -8.53125q0 -4.515625 -2.34375 -8.140625q-2.34375 -3.640625 -6.609375 -7.8125l-12.625 -12.546875q-3.171875 -3.25 -4.625 -6.484375q-1.4375 -3.25 -1.4375 -6.65625q0 -6.8281097 4.21875 -10.499985q4.21875 -3.671875 10.96875 -3.671875q3.5 0 6.3125 0.90625q2.8125 0.890625 4.90625 2.90625q2.09375 2.0 3.28125 5.328125q1.203125 3.328125 1.546875 8.187485l-3.9375 0.9375q-0.34375 -4.8593597 -1.625 -8.093735q-1.265625 -3.25 -3.75 -4.828125q-2.46875 -1.578125 -6.65625 -1.578125q-4.6875 0 -7.84375 2.390625q-3.15625 2.390625 -3.15625 7.671875q0 2.6406097 1.0625 5.1249847q1.0625 2.46875 3.96875 5.375l12.453125 12.28125q4.1875 4.09375 7.21875 8.75q3.03125 4.65625 3.03125 10.203125q0 5.203125 -1.96875 8.578125q-1.96875 3.359375 -5.46875 4.984375q-3.484375 1.625 -8.015625 1.625zm34.8183 -0.09375q-3.921875 0 -6.75 -1.578125q-2.8125 -1.578125 -4.3125 -5.71875q-1.484375 -4.140625 -1.484375 -11.734375l0 -13.140625q0 -7.765625 1.53125 -11.765625q1.546875 -4.015625 4.40625 -5.46875q2.859375 -1.453125 6.6875 -1.453125q4.609375 0 7.25 1.96875q2.65625 1.96875 3.765625 6.28125q1.109375 4.296875 1.109375 11.375l0 4.703125l-20.21875 0l0 7.84375q0 5.890625 0.796875 9.21875q0.8125 3.328125 2.609375 4.703125q1.796875 1.359375 4.609375 1.359375q1.796875 0 3.578125 -0.59375q1.796875 -0.609375 2.984375 -2.828125q1.203125 -2.21875 1.203125 -6.90625l0 -3.671875l4.4375 0l0 3.25q0 6.3125 -2.609375 10.234375q-2.59375 3.921875 -9.59375 3.921875zm-8.015625 -29.265625l15.78125 0l0 -3.84375q0 -4.4375 -0.46875 -7.625q-0.46875 -3.203125 -2.09375 -4.953125q-1.625 -1.75 -5.125 -1.75q-2.71875 0 -4.5625 1.15625q-1.828125 1.140625 -2.6875 4.265625q-0.84375 3.109375 -0.84375 9.0l0 3.75zm28.745636 28.5l0 -49.3125l4.53125 0l0 5.28125q2.296875 -2.734375 5.28125 -4.390625q2.984375 -1.671875 6.40625 -1.671875q2.21875 0 3.96875 1.078125q1.75 1.0625 2.765625 3.40625q1.03125 2.34375 1.03125 6.265625l0 39.34375l-4.53125 0l0 -38.828125q0 -4.515625 -1.40625 -6.140625q-1.40625 -1.625 -3.796875 -1.625q-2.46875 0 -4.984375 1.5q-2.515625 1.484375 -4.734375 3.96875l0 41.125l-4.53125 0zm44.20703 0.515625q-3.421875 0 -5.125 -1.359375q-1.703125 -1.375 -2.21875 -3.671875q-0.515625 -2.3125 -0.515625 -5.21875l0 -36.59375l-6.484375 0l0 -2.984375l6.484375 0l0 -15.79686l4.53125 0l0 15.79686l8.359375 0l0 2.984375l-8.359375 0l0 36.0q0 4.015625 0.765625 5.640625q0.765625 1.609375 3.5 1.609375q0.859375 0 1.828125 -0.125q0.984375 -0.125 1.84375 -0.296875l0 3.5q-1.03125 0.25 -2.3125 0.375q-1.28125 0.140625 -2.296875 0.140625zm12.285034 -0.515625l0 -49.3125l4.609375 0l0 49.3125l-4.609375 0zm0 -55.796875l0 -7.8593597l4.609375 0l0 7.8593597l-4.609375 0zm15.439514 55.796875l0 -49.3125l4.265625 0l0 5.203125q2.390625 -2.90625 5.375 -4.484375q3.0 -1.578125 6.234375 -1.578125q2.46875 0 4.640625 1.375q2.1875 1.359375 3.046875 5.1875q2.46875 -3.15625 5.53125 -4.859375q3.078125 -1.703125 6.5 -1.703125q2.046875 0 3.921875 0.9375q1.875 0.9375 3.0625 3.375q1.203125 2.421875 1.203125 6.859375l0 39.0l-4.359375 0l0 -39.078125q0 -4.78125 -1.53125 -6.3125q-1.53125 -1.546875 -3.75 -1.546875q-2.65625 0 -5.296875 1.59375q-2.640625 1.578125 -4.953125 4.21875q0.09375 0.421875 0.125 0.984375q0.046875 0.546875 0.046875 1.140625l0 39.0l-4.34375 0l0 -39.078125q0 -4.78125 -1.546875 -6.3125q-1.53125 -1.546875 -3.75 -1.546875q-2.5625 0 -5.203125 1.59375q-2.640625 1.578125 -4.953125 4.125l0 41.21875l-4.265625 0zm64.76877 0.765625q-3.921875 0 -6.75 -1.578125q-2.8125 -1.578125 -4.3125 -5.71875q-1.484375 -4.140625 -1.484375 -11.734375l0 -13.140625q0 -7.765625 1.53125 -11.765625q1.546875 -4.015625 4.40625 -5.46875q2.859375 -1.453125 6.6875 -1.453125q4.609375 0 7.25 1.96875q2.65625 1.96875 3.765625 6.28125q1.109375 4.296875 1.109375 11.375l0 4.703125l-20.21875 0l0 7.84375q0 5.890625 0.796875 9.21875q0.8125 3.328125 2.609375 4.703125q1.796875 1.359375 4.609375 1.359375q1.796875 0 3.578125 -0.59375q1.796875 -0.609375 2.984375 -2.828125q1.203125 -2.21875 1.203125 -6.90625l0 -3.671875l4.4375 0l0 3.25q0 6.3125 -2.609375 10.234375q-2.59375 3.921875 -9.59375 3.921875zm-8.015625 -29.265625l15.78125 0l0 -3.84375q0 -4.4375 -0.46875 -7.625q-0.46875 -3.203125 -2.09375 -4.953125q-1.625 -1.75 -5.125 -1.75q-2.71875 0 -4.5625 1.15625q-1.828125 1.140625 -2.6875 4.265625q-0.84375 3.109375 -0.84375 9.0l0 3.75zm28.745605 28.5l0 -49.3125l4.53125 0l0 5.28125q2.296875 -2.734375 5.28125 -4.390625q2.984375 -1.671875 6.40625 -1.671875q2.21875 0 3.96875 1.078125q1.75 1.0625 2.765625 3.40625q1.03125 2.34375 1.03125 6.265625l0 39.34375l-4.53125 0l0 -38.828125q0 -4.515625 -1.40625 -6.140625q-1.40625 -1.625 -3.796875 -1.625q-2.46875 0 -4.984375 1.5q-2.515625 1.484375 -4.734375 3.96875l0 41.125l-4.53125 0zm44.20703 0.515625q-3.421875 0 -5.125 -1.359375q-1.703125 -1.375 -2.21875 -3.671875q-0.515625 -2.3125 -0.515625 -5.21875l0 -36.59375l-6.484375 0l0 -2.984375l6.484375 0l0 -15.79686l4.53125 0l0 15.79686l8.359375 0l0 2.984375l-8.359375 0l0 36.0q0 4.015625 0.765625 5.640625q0.765625 1.609375 3.5 1.609375q0.859375 0 1.828125 -0.125q0.984375 -0.125 1.84375 -0.296875l0 3.5q-1.03125 0.25 -2.3125 0.375q-1.28125 0.140625 -2.296875 0.140625zm25.599548 -0.515625l14.5 -69.10936l5.375 0l14.59375 69.10936l-4.6875 0l-3.59375 -19.109375l-17.921875 0l-3.65625 19.109375l-4.609375 0zm8.953125 -22.53125l16.640625 0l-8.359375 -40.95311l-8.28125 40.95311zm33.105408 22.53125l0 -49.3125l4.53125 0l0 5.28125q2.296875 -2.734375 5.28125 -4.390625q2.984375 -1.671875 6.40625 -1.671875q2.21875 0 3.96875 1.078125q1.75 1.0625 2.765625 3.40625q1.03125 2.34375 1.03125 6.265625l0 39.34375l-4.53125 0l0 -38.828125q0 -4.515625 -1.40625 -6.140625q-1.40625 -1.625 -3.796875 -1.625q-2.46875 0 -4.984375 1.5q-2.515625 1.484375 -4.734375 3.96875l0 41.125l-4.53125 0zm40.95703 0.765625q-2.984375 0 -5.203125 -1.359375q-2.21875 -1.375 -3.453125 -3.796875q-1.234375 -2.4375 -1.234375 -5.59375q0 -3.15625 0.8125 -5.5q0.8125 -2.34375 2.9375 -4.390625q2.140625 -2.046875 6.109375 -4.3125q3.96875 -2.265625 10.28125 -5.25l0 -3.5q0 -5.375 -0.640625 -8.359375q-0.640625 -2.984375 -2.140625 -4.171875q-1.484375 -1.203125 -4.046875 -1.203125q-1.96875 0 -3.765625 0.6875q-1.78125 0.671875 -2.9375 2.6875q-1.15625 2.0 -1.15625 5.921875l0 1.28125l-4.4375 0q0 -7.078125 2.859375 -10.53125q2.859375 -3.46875 9.609375 -3.46875q6.21875 0 8.6875 3.9375q2.484375 3.921875 2.484375 12.703125l0 24.828125q0 0.6875 0.046875 2.609375q0.046875 1.921875 0.078125 3.71875q0.046875 1.78125 0.125 2.296875l-3.921875 0q-0.171875 -1.796875 -0.421875 -3.75q-0.25 -1.96875 -0.34375 -2.8125q-1.109375 3.0625 -3.84375 5.203125q-2.71875 2.125 -6.484375 2.125zm1.109375 -3.75q2.140625 0 3.84375 -0.984375q1.703125 -0.984375 3.0625 -2.5625q1.375 -1.578125 2.234375 -3.359375l0 -16.21875q-4.53125 2.390625 -7.5625 4.09375q-3.03125 1.703125 -4.78125 3.25q-1.734375 1.53125 -2.515625 3.453125q-0.765625 1.921875 -0.765625 4.640625q0 4.4375 2.046875 6.0625q2.046875 1.625 4.4375 1.625zm23.812988 2.984375l0 -69.10936l4.515625 0l0 69.10936l-4.515625 0zm13.308533 12.28125l0 -3.65625q4.859375 0 7.125 -0.8125q2.265625 -0.8125 2.90625 -2.1875q0.640625 -1.359375 0.640625 -2.984375q0 -1.703125 -0.4375 -3.65625q-0.421875 -1.96875 -0.9375 -4.015625l-10.40625 -44.28125l4.4375 0l9.734375 45.046875l9.375 -45.046875l4.53125 0l-12.03125 53.328125q-0.59375 2.8125 -2.1875 4.640625q-1.578125 1.84375 -4.21875 2.734375q-2.640625 0.890625 -6.65625 0.890625l-1.875 0zm44.88867 -11.515625q-5.8125 0 -9.234375 -3.796875q-3.40625 -3.796875 -3.90625 -10.28125l3.828125 -1.109375q0.4375 6.234375 2.859375 9.015625q2.4375 2.765625 6.625 2.765625q3.75 0 5.796875 -2.09375q2.046875 -2.09375 2.046875 -5.9375q0 -2.640625 -1.75 -5.5q-1.75 -2.859375 -5.5 -6.015625l-5.71875 -4.859375q-3.671875 -3.15625 -5.375 -6.015625q-1.703125 -2.859375 -1.703125 -6.53125q0 -3.40625 1.40625 -5.703125q1.40625 -2.3125 3.921875 -3.546875q2.515625 -1.25 5.84375 -1.25q5.546875 0 8.28125 3.5q2.734375 3.5 2.890625 9.390625l-3.328125 1.03125q-0.078125 -3.84375 -1.0625 -6.140625q-0.984375 -2.3125 -2.65625 -3.328125q-1.65625 -1.03125 -3.875 -1.03125q-3.234375 0 -5.25 1.671875q-2.0 1.65625 -2.0 4.890625q0 2.734375 1.0625 4.75q1.078125 2.0 3.96875 4.640625l5.890625 5.203125q2.21875 1.875 4.265625 4.015625q2.046875 2.125 3.375 4.734375q1.328125 2.59375 1.328125 6.1875q0 3.578125 -1.5 6.09375q-1.484375 2.515625 -4.1875 3.890625q-2.6875 1.359375 -6.34375 1.359375zm30.03302 -0.25q-3.421875 0 -5.125 -1.359375q-1.703125 -1.375 -2.21875 -3.671875q-0.515625 -2.3125 -0.515625 -5.21875l0 -36.59375l-6.484375 0l0 -2.984375l6.484375 0l0 -15.79686l4.53125 0l0 15.79686l8.359375 0l0 2.984375l-8.359375 0l0 36.0q0 4.015625 0.765625 5.640625q0.765625 1.609375 3.5 1.609375q0.859375 0 1.828125 -0.125q0.984375 -0.125 1.84375 -0.296875l0 3.5q-1.03125 0.25 -2.3125 0.375q-1.28125 0.140625 -2.296875 0.140625z" fill-rule="nonzero"/></g></svg>